<svg height="496pt" viewBox="0 0 496 496" width="496pt" xmlns="http://www.w3.org/2000/svg"><path d="m257.921875 134.078125c9.039063-9.039063 21.199219-14.078125 34-14.078125h41.757813l29.679687-28.640625 12.640625-12.238281v-71.121094h-368v480h368v-210l-16-14h-94.238281l-49.761719 48-56 16 16-56 24.480469-23.601562c-.320313-1.4375-.480469-2.878907-.480469-4.398438 0-1.679688.238281-3.28125.558594-4.800781-4.71875-1.277344-8.878906-4.160157-11.839844-8-2.957031-3.839844-4.71875-8.640625-4.71875-13.839844 0-6 2.398438-11.757813 6.640625-16zm0 0" fill="#e6e9ed"/><path d="m192 152 1.039062.480469c-12.398437 28-40.480468 47.519531-73.039062 47.519531-26.160156 0-49.359375-12.558594-64-32l64-48zm0 0" fill="#69d6f4"/><path d="m200 120c0 11.601562-2.480469 22.558594-6.960938 32.480469l-1.039062-.480469-72-32v-80c44.160156 0 80 35.839844 80 80zm0 0" fill="#b4dd7f"/><path d="m120 40v80l-64 48c-10-13.359375-16-30-16-48 0-44.160156 35.839844-80 80-80zm0 0" fill="#fcd770"/><path d="m333.679688 120-107.917969 104h-5.761719c-9.359375 0-17.28125 6.480469-19.441406 15.199219-4.71875-1.277344-8.878906-4.160157-11.839844-8-2.957031-3.839844-4.71875-8.640625-4.71875-13.839844 0-6 2.398438-11.757813 6.640625-16l67.28125-67.28125c9.039063-9.039063 21.199219-14.078125 34-14.078125zm0 0" fill="#f0d0b4"/><path d="m376 79.121094 15.921875-15.28125c5.199219-5.039063 12.15625-7.839844 19.359375-7.839844h.796875c15.441406 0 27.921875 12.480469 27.921875 27.921875 0 7.679687-3.199219 15.039063-8.800781 20.316406l-28.320313 26.640625-39.519531-39.519531zm0 0" fill="#aab2bd"/><path d="m333.679688 120 29.679687-28.640625 39.519531 39.519531-18 17.042969-80.878906 76.078125h-78.238281zm0 0" fill="#fcd770"/><path d="m265.761719 264-49.761719 48-40-40 24.480469-23.601562c.878906 3.761718 2.71875 7.121093 5.359375 9.761718 3.601562 3.601563 8.640625 5.839844 14.160156 5.839844zm0 0" fill="#fcd770"/><path d="m376 278-16-14h-140c-5.519531 0-10.558594-2.238281-14.160156-5.839844-2.640625-2.640625-4.480469-6-5.359375-9.761718-.320313-1.4375-.480469-2.878907-.480469-4.398438 0-1.679688.238281-3.28125.558594-4.800781 2.160156-8.71875 10.082031-15.199219 19.441406-15.199219h84l80.878906-76.078125 103.121094 92.078125v136zm0 0" fill="#f0d0b4"/><path d="m216 312-56 16 16-56zm0 0" fill="#969faa"/><path d="m496 236.414062-99.320312-88.652343 40.015624-37.65625c7.183594-6.769531 11.304688-16.304688 11.304688-26.175781 0-19.808594-16.121094-35.929688-36.726562-35.929688-9.351563 0-18.210938 3.574219-24.945313 10.070312l-2.328125 2.242188v-60.3125h-384v496h384v-200.367188l112 98zm-316.039062 50.859376 20.773437 20.773437-29.078125 8.304687zm36.144531 13.519531-28.691407-28.6875 10.945313-10.5625c5.136719 6.328125 12.878906 10.457031 21.640625 10.457031h25.960938zm-19.128907-72.664063c-3.007812-2.714844-4.976562-6.511718-4.976562-10.753906 0-3.847656 1.558594-7.621094 4.28125-10.34375l67.3125-67.3125c7.550781-7.550781 17.597656-11.71875 28.285156-11.71875h21.929688l-91.257813 88h-2.550781c-9.542969 0-17.960938 4.816406-23.023438 12.128906zm166.269532-125.570312 28.179687 28.175781-90.59375 85.265625h-55.230469zm34.195312-32.972656c3.726563-3.601563 8.648438-5.585938 14.628906-5.585938 10.992188 0 19.929688 8.9375 19.929688 19.929688 0 5.476562-2.289062 10.765624-6.273438 14.511718l-22.648437 21.320313-28.308594-28.3125zm-29.441406 410.414062h-352v-464h352v59.742188l-37.601562 36.257812h-38.519532c-14.957031 0-29.023437 5.832031-39.597656 16.40625l-67.3125 67.3125c-5.785156 5.785156-8.96875 13.472656-8.96875 21.65625 0 11.351562 6.367188 21.535156 16.015625 26.816406 0 .382813.097656.753906.113281 1.128906l-23.234375 22.414063-20.542969 71.914063 71.769532-20.503907 48.886718-47.144531h87.984376l11.007812 9.632812zm112-121.632812-116.992188-102.367188h-143.007812c-6.617188 0-12-5.382812-12-12s5.382812-12 12-12h87.167969l77.816406-73.230469 95.015625 84.816407zm0 0"/><path d="m32 320h96v16h-96zm0 0"/><path d="m32 352h320v16h-320zm0 0"/><path d="m64 384h288v16h-288zm0 0"/><path d="m32 384h16v16h-16zm0 0"/><path d="m32 416h320v16h-320zm0 0"/><path d="m336 448h16v16h-16zm0 0"/><path d="m32 448h288v16h-288zm0 0"/><path d="m120 208c48.519531 0 88-39.480469 88-88s-39.480469-88-88-88-88 39.480469-88 88 39.480469 88 88 88zm0-16c-20.640625 0-39.222656-8.777344-52.359375-22.726562l53.398437-40.050782 61.015626 27.121094c-12.519532 21.289062-35.613282 35.65625-62.054688 35.65625zm72-72c0 7.574219-1.191406 14.878906-3.375 21.742188l-60.625-26.941407v-66.328125c35.945312 3.992188 64 34.527344 64 71.527344zm-80-71.527344v67.527344l-53.96875 40.480469c-6.328125-10.710938-10.03125-23.160157-10.03125-36.480469 0-37 28.054688-67.535156 64-71.527344zm0 0"/><path d="m224 32h128v16h-128zm0 0"/><path d="m224 64h128v16h-128zm0 0"/></svg>