<svg height="512pt" viewBox="0 0 512 512" width="512pt" xmlns="http://www.w3.org/2000/svg"><path d="m512 256c0 141.386719-114.613281 256-256 256s-256-114.613281-256-256 114.613281-256 256-256 256 114.613281 256 256zm0 0" fill="#414952"/><path d="m511.703125 268.21875-74.210937-74.210938-.738282 1.160157-96.917968-96.917969-265.328126 279.742188 128.503907 128.503906c17.097656 3.597656 34.820312 5.503906 52.988281 5.503906 137.289062 0 249.324219-108.070312 255.703125-243.78125zm0 0" fill="#23272b"/><path d="m74.507812 194.007812h362.984376v183.984376h-362.984376zm0 0" fill="#ffa300"/><path d="m255.808594 194.007812h181.683594v183.984376h-181.683594zm0 0" fill="#ff9500"/><path d="m180.171875 302.695312-105.664063 75.296876h362.984376l-105.664063-75.296876c-22.136719-15.777343-48.644531-24.257812-75.828125-24.257812s-53.691406 8.480469-75.828125 24.257812zm0 0" fill="#fdba12"/><path d="m331.828125 302.695312c-22.136719-15.777343-48.644531-24.257812-75.828125-24.257812-.0625 0-.128906.003906-.191406.003906v99.550782h181.683594zm0 0" fill="#ffa300"/><path d="m437.492188 194.007812-181.492188 134.210938-181.492188-134.210938zm0 0" fill="#ffd400"/><path d="m437.492188 194.007812h-181.683594v134.066407l.191406.144531zm0 0" fill="#fdba12"/><path d="m367 171c0 61.304688-49.695312 111-111 111s-111-49.695312-111-111 49.695312-111 111-111 111 49.695312 111 111zm0 0" fill="#09ce67"/><path d="m256 60c-.0625 0-.128906.003906-.191406.003906v221.992188c.0625 0 .128906.003906.191406.003906 61.304688 0 111-49.695312 111-111s-49.695312-111-111-111zm0 0" fill="#1aad5c"/><path d="m310.871094 101.832031-79.898438 79.902344-29.835937-29.835937-28.972657 28.960937 58.300782 59.308594 109.371094-109.371094zm0 0" fill="#fff"/><path d="m310.871094 101.832031-55.0625 55.0625v57.929688l84.027344-84.027344zm0 0" fill="#e9edf5"/></svg>